# Blender v2.91.0 OBJ File: 'Maya_Kent_Pirma.blend'
# www.blender.org
mtllib model.mtl
o First_Pyramid_Cube.003
v -0.325000 0.050000 2.750000
v -0.325000 0.050000 2.700000
v -0.325000 0.000000 2.750000
v 0.325000 0.050000 2.750000
v 0.325000 0.050000 2.700000
v -0.325000 0.100000 2.700000
v -0.325000 0.100000 2.650000
v 0.325000 0.100000 2.700000
v 0.325000 0.100000 2.650000
v -0.325000 0.150000 2.650000
v -0.325000 0.150000 2.600000
v 0.325000 0.150000 2.650000
v 0.325000 0.150000 2.600000
v -0.325000 0.200000 2.600000
v 0.325000 0.200000 2.600000
v 0.325000 0.200000 2.550000
v -0.325000 0.250000 2.550000
v -0.325000 0.200000 2.550000
v 0.325000 0.250000 2.550000
v 0.325000 0.250000 2.500000
v -0.325000 0.300000 2.500000
v -0.325000 0.250000 2.500000
v 0.325000 0.300000 2.500000
v 0.325000 0.300000 2.450000
v -0.325000 0.350000 2.450000
v -0.325000 0.300000 2.450000
v 0.325000 0.350000 2.450000
v 0.325000 0.350000 2.400000
v -0.325000 0.400000 2.400000
v -0.325000 0.400000 2.350000
v -0.325000 0.350000 2.400000
v 0.325000 0.400000 2.400000
v 0.325000 0.400000 2.350000
v -0.325000 0.450000 2.350000
v 0.325000 0.450000 2.350000
v 0.325000 0.450000 2.300000
v -0.325000 0.500000 2.300000
v -0.325000 0.450000 2.300000
v 0.325000 0.500000 2.300000
v 0.325000 0.500000 2.250000
v -0.325000 0.550000 2.250000
v -0.325000 0.550000 2.200000
v -0.325000 0.500000 2.250000
v 0.325000 0.550000 2.250000
v 0.325000 0.550000 2.200000
v -0.325000 0.600000 2.200000
v 0.325000 0.600000 2.200000
v 0.325000 0.600000 2.150000
v -0.325000 0.650000 2.150000
v -0.325000 0.650000 2.100000
v -0.325000 0.600000 2.150000
v 0.325000 0.650000 2.150000
v 0.325000 0.650000 2.100000
v -0.325000 0.700000 2.100000
v -0.325000 0.700000 2.050000
v 0.325000 0.700000 2.100000
v 0.325000 0.700000 2.050000
v -0.325000 0.750000 2.050000
v -0.325000 0.750000 2.000000
v 0.325000 0.750000 2.050000
v 0.325000 0.750000 2.000000
v -0.325000 0.800000 2.000000
v 0.325000 0.800000 2.000000
v 0.325000 0.800000 1.950001
v -0.325000 0.850000 1.950001
v -0.325000 0.800000 1.950001
v 0.325000 0.850000 1.950001
v 0.325000 0.850000 1.900001
v -0.325000 0.900000 1.900001
v -0.325000 0.900000 1.850001
v -0.325000 0.850000 1.900001
v 0.325000 0.900000 1.900001
v 0.325000 0.900000 1.850001
v -0.325000 0.950000 1.850001
v -0.325000 0.950000 1.800001
v 0.325000 0.950000 1.850001
v 0.325000 0.950000 1.800001
v -0.325000 1.000000 1.800001
v -0.325000 1.000000 1.750001
v 0.325000 1.000000 1.800001
v 0.325000 1.000000 1.750001
v -0.325000 1.050000 1.750001
v 0.325000 1.050000 1.750001
v 0.325000 1.050000 1.700001
v -0.325000 1.100000 1.700001
v -0.325000 1.100000 1.650001
v -0.325000 1.050000 1.700001
v 0.325000 1.100000 1.700001
v 0.325000 1.100000 1.650001
v -0.325000 1.150000 1.650001
v -0.325000 1.150000 1.600001
v 0.325000 1.150000 1.650001
v 0.325000 1.150000 1.600001
v -0.325000 1.200000 1.600001
v -0.325000 1.200000 1.550001
v 0.325000 1.200000 1.600001
v 0.325000 1.200000 1.550001
v -0.325000 1.250000 1.550001
v 0.325000 1.250000 1.550001
v 0.325000 1.250000 1.500001
v -0.325000 1.300000 1.500001
v -0.325000 1.250000 1.500001
v 0.325000 1.300000 1.500001
v 0.325000 1.300000 1.450001
v -0.325000 1.350000 1.450001
v -0.325000 1.350000 1.400001
v -0.325000 1.300000 1.450001
v 0.325000 1.350000 1.450001
v 0.325000 1.350000 1.400001
v -0.325000 1.400000 1.400001
v 0.325000 1.400000 1.400001
v 0.325000 1.400000 1.350001
v -0.325000 1.450000 1.350001
v -0.325000 1.450000 1.300001
v -0.325000 1.400000 1.350001
v 0.325000 1.450000 1.350001
v 0.325000 1.450000 1.300001
v -0.325000 1.500000 1.300001
v 0.325000 1.500000 1.300001
v 0.325000 1.500000 1.250001
v -0.325000 1.550000 1.250001
v -0.325000 1.550000 1.200001
v -0.325000 1.500000 1.250001
v 0.325000 1.550000 1.250001
v 0.325000 1.550000 1.200001
v -0.325000 1.600000 1.200001
v 0.325000 1.600000 1.200001
v 0.325000 1.600000 1.150001
v -0.325000 1.649999 1.150001
v -0.325000 1.600000 1.150001
v 0.325000 1.649999 1.150001
v 0.325000 1.649999 1.100001
v -0.325000 1.699999 1.100001
v -0.325000 1.649999 1.100001
v 0.325000 1.699999 1.100001
v 0.325000 1.699999 1.050001
v -0.325000 1.749999 1.050001
v -0.325000 1.749999 1.000001
v -0.325000 1.699999 1.050001
v 0.325000 1.749999 1.050001
v 0.325000 1.749999 1.000001
v 2.500000 0.000000 -2.500000
v 2.500000 0.000000 2.500000
v -2.500000 0.000000 2.500000
v -2.499999 0.000000 -2.500001
v 2.250001 0.250000 -2.249999
v 2.249999 0.250000 2.250001
v -2.250001 0.250000 2.249999
v -2.250000 0.250000 -2.250000
v 2.500001 0.250000 -2.499999
v 2.499999 0.250000 2.500001
v -2.500000 0.250000 -2.500000
v -2.500001 0.250000 2.499999
v 2.000001 0.500000 -1.999999
v 1.999999 0.500000 2.000001
v -2.000000 0.500000 -2.000000
v -2.000001 0.500000 1.999999
v 2.250001 0.500000 -2.249999
v 2.249999 0.500000 2.250001
v -2.250000 0.500000 -2.250000
v -2.250001 0.500000 2.249999
v 1.750001 0.750000 -1.749999
v 1.749999 0.750000 1.750001
v -1.750000 0.750000 -1.750000
v -1.750001 0.750000 1.750000
v 2.000001 0.750000 -1.999999
v 1.999999 0.750000 2.000001
v -2.000000 0.750000 -2.000000
v -2.000001 0.750000 1.999999
v 1.500001 1.000000 -1.499999
v 1.499999 1.000000 1.500001
v -1.500000 1.000000 -1.500000
v -1.500001 1.000000 1.500000
v 1.750001 1.000000 -1.749999
v 1.749999 1.000000 1.750001
v -1.750000 1.000000 -1.750000
v -1.750001 1.000000 1.750000
v 1.250001 1.250000 -1.249999
v 1.249999 1.250000 1.250001
v -1.250000 1.250000 -1.250000
v -1.250001 1.250000 1.250000
v 1.500001 1.250000 -1.499999
v 1.499999 1.250000 1.500001
v -1.500000 1.250000 -1.500000
v -1.500001 1.250000 1.500000
v 1.000000 1.500000 -0.999999
v 0.999999 1.500000 1.000001
v -1.000000 1.500000 -1.000000
v -1.000001 1.500000 1.000000
v 1.250001 1.500000 -1.249999
v 1.249999 1.500000 1.250001
v -1.250000 1.500000 -1.250000
v -1.250001 1.500000 1.250000
v 0.750000 1.750000 -0.749999
v 0.750000 1.750000 0.750001
v -0.750000 1.750000 -0.750000
v -0.750001 1.750000 0.750000
v 1.000000 1.750000 -0.999999
v 0.999999 1.750000 1.000001
v -1.000000 1.750000 -1.000000
v -1.000001 1.750000 1.000000
v 0.750000 2.500565 -0.749999
v 0.750000 2.500565 0.750001
v -0.750000 2.500565 -0.750000
v -0.750001 2.500565 0.750000
v -0.375000 0.000000 -2.500000
v -0.375000 0.250000 -2.500000
v -0.375001 0.250000 2.500000
v -0.375000 0.250000 -2.250000
v -0.375001 0.250000 2.250000
v -0.375000 0.500000 -2.250000
v -0.375001 0.500000 2.250000
v -0.375000 0.500000 -2.000000
v -0.375001 0.500000 2.000000
v -0.375000 0.750000 -2.000000
v -0.375001 0.750000 2.000000
v -0.375000 0.750000 -1.750000
v -0.375001 0.750000 1.750000
v -0.375000 1.000000 -1.750000
v -0.375001 1.000000 1.750000
v -0.375000 1.000000 -1.500000
v -0.375001 1.000000 1.500000
v -0.375000 1.250000 -1.500000
v -0.375001 1.250000 1.500000
v -0.375000 1.250000 -1.250000
v -0.375001 1.250000 1.250000
v -0.375000 1.500000 -1.250000
v -0.375001 1.500000 1.250000
v -0.375000 1.500000 -1.000000
v -0.375001 1.500000 1.000000
v -0.375000 1.750000 -1.000000
v -0.375000 1.750000 -0.750000
v -0.375000 2.500565 -0.750000
v -0.375001 2.500565 0.750000
v 0.375000 0.000000 -2.500000
v 0.375000 0.000000 2.500000
v 0.375000 0.250000 -2.500000
v 0.374999 0.250000 2.500000
v 0.375000 0.250000 -2.250000
v 0.374999 0.250000 2.250000
v 0.375000 0.500000 -2.250000
v 0.374999 0.500000 2.250000
v 0.375000 0.500000 -2.000000
v 0.374999 0.500000 2.000000
v 0.375000 0.750000 -2.000000
v 0.374999 0.750000 2.000000
v 0.375000 0.750000 -1.750000
v 0.374999 0.750000 1.750000
v 0.375000 1.000000 -1.750000
v 0.374999 1.000000 1.750000
v 0.375000 1.000000 -1.500000
v 0.374999 1.000000 1.500000
v 0.375000 1.250000 -1.500000
v 0.374999 1.250000 1.500000
v 0.375000 1.250000 -1.250000
v 0.374999 1.250000 1.250000
v 0.375000 1.500000 -1.250000
v 0.374999 1.500000 1.250000
v 0.375000 1.500000 -1.000000
v 0.375000 1.750000 -1.000000
v 0.375000 1.750000 -0.750000
v 0.374999 1.750000 0.750000
v 0.375000 2.500565 -0.750000
v 0.374999 2.500565 0.750000
v -0.375000 0.000000 2.500000
v 0.374999 1.500000 1.000000
v -0.375000 0.000000 2.750000
v 0.325000 0.000000 2.750000
v 0.375000 0.000000 2.750000
v -0.375001 1.750000 1.000000
v -0.375000 0.125000 2.750000
v -0.375001 1.875000 1.000000
v -0.325000 0.125000 2.750000
v -0.325001 1.875000 1.000000
v 0.325000 0.125000 2.750000
v 0.375000 0.125000 2.750000
v 0.374999 1.750000 1.000000
v 0.324999 1.875000 1.000000
v 0.374999 1.875000 1.000000
v 0.324999 1.750000 0.750000
v -0.325001 1.875000 0.750000
v -0.375001 1.875000 0.750000
v 0.324999 1.875000 0.750000
v 0.374999 1.875000 0.750000
v -0.375001 1.750000 0.750000
v -0.325001 1.750000 0.750000
v 0.750000 2.252065 0.750001
v -0.750001 2.252065 0.750000
v 0.750000 2.252065 -0.749999
v -0.750000 2.252065 -0.750000
v -0.375000 2.252065 -0.750000
v 0.375000 2.252065 -0.750000
v 0.374999 2.252065 0.750000
v -0.375001 2.252065 0.750000
v -0.250000 0.000000 -2.500000
v -0.250000 0.250000 -2.500000
v -0.250000 0.250000 -2.250000
v -0.250000 0.500000 -2.250000
v -0.250000 0.500000 -2.000000
v -0.250000 0.750000 -2.000000
v -0.250000 0.750000 -1.750000
v -0.250000 1.000000 -1.750000
v -0.250000 1.000000 -1.500000
v -0.250000 1.250000 -1.500000
v -0.250000 1.250000 -1.250000
v -0.250000 1.500000 -1.250000
v -0.250000 1.500000 -1.000000
v -0.250000 1.750000 -1.000000
v -0.250000 1.750000 -0.750000
v -0.250000 2.500565 -0.750000
v -0.250001 2.500565 0.750000
v -0.250000 0.000000 2.500000
v -0.250001 1.500000 1.000000
v -0.250000 0.000000 2.750000
v -0.250001 1.750000 0.750000
v -0.250001 1.750000 1.000000
v -0.250001 2.252065 0.750000
v -0.250000 2.252065 -0.750000
v 0.250000 2.252065 -0.750000
v 0.250000 0.000000 -2.500000
v 0.250000 0.250000 -2.500000
v 0.250000 0.250000 -2.250000
v 0.250000 0.500000 -2.250000
v 0.250000 0.500000 -2.000000
v 0.250000 0.750000 -2.000000
v 0.250000 0.750000 -1.750000
v 0.250000 1.000000 -1.750000
v 0.250000 1.000000 -1.500000
v 0.250000 1.250000 -1.500000
v 0.250000 1.250000 -1.250000
v 0.250000 1.500000 -1.250000
v 0.250000 1.500000 -1.000000
v 0.250000 1.750000 -1.000000
v 0.250000 1.750000 -0.750000
v 0.250000 2.500565 -0.750000
v 0.249999 2.500565 0.750000
v 0.250000 0.000000 2.500000
v 0.249999 1.500000 1.000000
v 0.250000 0.000000 2.750000
v 0.249999 1.750000 0.750000
v 0.249999 1.750000 1.000000
v 0.249999 2.252065 0.750000
v 0.249999 1.750000 0.048651
v -0.250001 1.750000 0.048651
v 0.249999 2.252065 0.048651
v -0.250001 2.252065 0.048651
vn 0.0000 -1.0000 0.0000
vn 0.0000 0.0000 -1.0000
vn -1.0000 0.0000 -0.0000
vn 1.0000 0.0000 0.0000
vn -0.0000 -0.0000 1.0000
vn 0.0000 1.0000 0.0000
vn 0.0000 0.7071 0.7071
usemtl Material
s off
f 1//1 2//1 5//1 4//1
f 3//2 1//2 4//2 268//2
f 6//1 7//1 9//1 8//1
f 2//2 6//2 8//2 5//2
f 10//1 11//1 13//1 12//1
f 7//2 10//2 12//2 9//2
f 14//1 18//1 16//1 15//1
f 11//2 14//2 15//2 13//2
f 17//1 22//1 20//1 19//1
f 18//2 17//2 19//2 16//2
f 21//1 26//1 24//1 23//1
f 22//2 21//2 23//2 20//2
f 25//1 31//1 28//1 27//1
f 26//2 25//2 27//2 24//2
f 29//1 30//1 33//1 32//1
f 31//2 29//2 32//2 28//2
f 34//1 38//1 36//1 35//1
f 30//2 34//2 35//2 33//2
f 37//1 43//1 40//1 39//1
f 38//2 37//2 39//2 36//2
f 41//1 42//1 45//1 44//1
f 43//2 41//2 44//2 40//2
f 46//1 51//1 48//1 47//1
f 42//2 46//2 47//2 45//2
f 49//1 50//1 53//1 52//1
f 51//2 49//2 52//2 48//2
f 54//1 55//1 57//1 56//1
f 50//2 54//2 56//2 53//2
f 58//1 59//1 61//1 60//1
f 55//2 58//2 60//2 57//2
f 62//1 66//1 64//1 63//1
f 59//2 62//2 63//2 61//2
f 65//1 71//1 68//1 67//1
f 66//2 65//2 67//2 64//2
f 69//1 70//1 73//1 72//1
f 71//2 69//2 72//2 68//2
f 74//1 75//1 77//1 76//1
f 70//2 74//2 76//2 73//2
f 78//1 79//1 81//1 80//1
f 75//2 78//2 80//2 77//2
f 82//1 87//1 84//1 83//1
f 79//2 82//2 83//2 81//2
f 85//1 86//1 89//1 88//1
f 87//2 85//2 88//2 84//2
f 90//1 91//1 93//1 92//1
f 86//2 90//2 92//2 89//2
f 94//1 95//1 97//1 96//1
f 91//2 94//2 96//2 93//2
f 98//1 102//1 100//1 99//1
f 95//2 98//2 99//2 97//2
f 101//1 107//1 104//1 103//1
f 102//2 101//2 103//2 100//2
f 105//1 106//1 109//1 108//1
f 107//2 105//2 108//2 104//2
f 110//1 115//1 112//1 111//1
f 106//2 110//2 111//2 109//2
f 113//1 114//1 117//1 116//1
f 115//2 113//2 116//2 112//2
f 118//1 123//1 120//1 119//1
f 114//2 118//2 119//2 117//2
f 121//1 122//1 125//1 124//1
f 123//2 121//2 124//2 120//2
f 126//1 130//1 128//1 127//1
f 122//2 126//2 127//2 125//2
f 129//1 134//1 132//1 131//1
f 130//2 129//2 131//2 128//2
f 133//1 139//1 136//1 135//1
f 134//2 133//2 135//2 132//2
f 137//1 138//1 141//1 140//1
f 139//2 137//2 140//2 136//2
f 206//1 265//1 144//1 145//1
f 149//3 148//3 161//3 160//3
f 142//4 150//4 151//4 143//4
f 265//5 208//5 153//5 144//5
f 144//3 153//3 152//3 145//3
f 207//2 206//2 145//2 152//2
f 146//6 147//6 151//6 150//6
f 239//6 146//6 150//6 237//6
f 210//6 148//6 153//6 208//6
f 148//6 149//6 152//6 153//6
f 155//4 154//4 166//4 167//4
f 209//2 149//2 160//2 211//2
f 240//5 147//5 159//5 242//5
f 147//4 146//4 158//4 159//4
f 154//6 155//6 159//6 158//6
f 243//6 154//6 158//6 241//6
f 214//6 157//6 161//6 212//6
f 157//6 156//6 160//6 161//6
f 248//5 163//5 175//5 250//5
f 156//3 157//3 169//3 168//3
f 213//2 156//2 168//2 215//2
f 244//5 155//5 167//5 246//5
f 162//6 163//6 167//6 166//6
f 247//6 162//6 166//6 245//6
f 218//6 165//6 169//6 216//6
f 165//6 164//6 168//6 169//6
f 221//2 172//2 184//2 223//2
f 163//4 162//4 174//4 175//4
f 164//3 165//3 177//3 176//3
f 217//2 164//2 176//2 219//2
f 170//6 171//6 175//6 174//6
f 251//6 170//6 174//6 249//6
f 222//6 173//6 177//6 220//6
f 173//6 172//6 176//6 177//6
f 180//3 181//3 193//3 192//3
f 252//5 171//5 183//5 254//5
f 171//4 170//4 182//4 183//4
f 172//3 173//3 185//3 184//3
f 178//6 179//6 183//6 182//6
f 255//6 178//6 182//6 253//6
f 226//6 181//6 185//6 224//6
f 181//6 180//6 184//6 185//6
f 266//5 187//5 199//5 277//5
f 225//2 180//2 192//2 227//2
f 256//5 179//5 191//5 258//5
f 179//4 178//4 190//4 191//4
f 186//6 187//6 191//6 190//6
f 259//6 186//6 190//6 257//6
f 230//6 189//6 193//6 228//6
f 189//6 188//6 192//6 193//6
f 293//5 287//5 203//5 264//5
f 187//4 186//4 198//4 199//4
f 188//3 189//3 201//3 200//3
f 229//2 188//2 200//2 231//2
f 194//6 195//6 199//6 198//6
f 261//6 194//6 198//6 260//6
f 285//6 197//6 201//6 270//6
f 197//6 196//6 200//6 201//6
f 233//6 204//6 205//6 234//6
f 287//4 289//4 202//4 203//4
f 290//3 288//3 205//3 204//3
f 291//2 290//2 204//2 233//2
f 318//2 291//2 233//2 310//2
f 310//6 233//6 234//6 311//6
f 315//6 285//6 270//6 316//6
f 196//6 232//6 231//6 200//6
f 307//2 229//2 231//2 308//2
f 288//5 294//5 234//5 205//5
f 188//6 229//6 227//6 192//6
f 181//5 226//5 228//5 193//5
f 305//2 225//2 227//2 306//2
f 189//5 230//5 270//5 201//5
f 180//6 225//6 223//6 184//6
f 173//5 222//5 224//5 185//5
f 172//6 221//6 219//6 176//6
f 301//2 217//2 219//2 302//2
f 303//2 221//2 223//2 304//2
f 164//6 217//6 215//6 168//6
f 157//5 214//5 216//5 169//5
f 299//2 213//2 215//2 300//2
f 165//5 218//5 220//5 177//5
f 156//6 213//6 211//6 160//6
f 148//5 210//5 212//5 161//5
f 297//2 209//2 211//2 298//2
f 149//6 209//6 207//6 152//6
f 296//2 295//2 206//2 207//2
f 295//1 312//1 265//1 206//1
f 142//1 143//1 236//1 235//1
f 143//5 151//5 238//5 236//5
f 150//2 142//2 235//2 237//2
f 147//6 240//6 238//6 151//6
f 146//2 239//2 241//2 158//2
f 155//6 244//6 242//6 159//6
f 154//2 243//2 245//2 166//2
f 163//6 248//6 246//6 167//6
f 170//2 251//2 253//2 182//2
f 162//2 247//2 249//2 174//2
f 171//6 252//6 250//6 175//6
f 179//6 256//6 254//6 183//6
f 178//2 255//2 257//2 190//2
f 187//6 266//6 258//6 191//6
f 186//2 259//2 260//2 198//2
f 195//6 262//6 277//6 199//6
f 202//6 263//6 264//6 203//6
f 289//2 292//2 263//2 202//2
f 334//6 261//6 260//6 333//6
f 342//5 293//5 264//5 336//5
f 332//6 259//6 257//6 331//6
f 338//5 266//5 277//5 341//5
f 330//6 255//6 253//6 329//6
f 328//6 251//6 249//6 327//6
f 326//6 247//6 245//6 325//6
f 324//6 243//6 241//6 323//6
f 322//6 239//6 237//6 321//6
f 337//1 236//1 269//1 339//1
f 230//3 265//3 267//3 270//3
f 236//4 266//4 277//4 269//4
f 138//7 3//7 268//7 141//7
f 267//5 3//5 273//5 271//5
f 3//4 138//4 274//4 273//4
f 272//7 271//7 273//7 274//7
f 279//7 278//7 275//7 276//7
f 269//5 276//5 275//5 268//5
f 268//3 275//3 278//3 141//3
f 270//3 267//3 271//3 272//3
f 277//4 279//4 276//4 269//4
f 279//4 277//4 262//4 284//4
f 274//4 138//4 286//4 281//4
f 286//2 285//2 282//2 281//2
f 280//2 283//2 284//2 262//2
f 141//3 278//3 283//3 280//3
f 272//6 274//6 281//6 282//6
f 138//1 270//1 285//1 286//1
f 270//3 272//3 282//3 285//3
f 278//6 279//6 284//6 283//6
f 277//1 141//1 280//1 262//1
f 340//5 262//5 293//5 342//5
f 194//2 261//2 292//2 289//2
f 197//5 285//5 294//5 288//5
f 309//2 232//2 291//2 318//2
f 232//2 196//2 290//2 291//2
f 196//3 197//3 288//3 290//3
f 195//4 194//4 289//4 287//4
f 262//5 195//5 287//5 293//5
f 334//2 309//2 318//2 319//2
f 285//5 315//5 317//5 294//5
f 265//1 312//1 314//1 267//1
f 209//6 297//6 296//6 207//6
f 213//6 299//6 298//6 211//6
f 217//6 301//6 300//6 215//6
f 221//6 303//6 302//6 219//6
f 225//6 305//6 304//6 223//6
f 230//5 313//5 316//5 270//5
f 229//6 307//6 306//6 227//6
f 294//5 317//5 311//5 234//5
f 232//6 309//6 308//6 231//6
f 320//1 337//1 312//1 295//1
f 321//2 320//2 295//2 296//2
f 322//2 297//2 298//2 323//2
f 324//2 299//2 300//2 325//2
f 328//2 303//2 304//2 329//2
f 326//2 301//2 302//2 327//2
f 330//2 305//2 306//2 331//2
f 332//2 307//2 308//2 333//2
f 340//6 315//6 316//6 341//6
f 335//6 310//6 311//6 336//6
f 319//2 318//2 310//2 335//2
f 292//2 319//2 335//2 263//2
f 263//6 335//6 336//6 264//6
f 262//6 340//6 341//6 277//6
f 259//2 332//2 333//2 260//2
f 255//2 330//2 331//2 257//2
f 247//2 326//2 327//2 249//2
f 251//2 328//2 329//2 253//2
f 243//2 324//2 325//2 245//2
f 239//2 322//2 323//2 241//2
f 237//2 235//2 320//2 321//2
f 235//1 236//1 337//1 320//1
f 261//2 334//2 319//2 292//2
f 340//3 342//3 345//3 343//3
f 312//1 337//1 339//1 314//1
f 297//6 322//6 321//6 296//6
f 299//6 324//6 323//6 298//6
f 301//6 326//6 325//6 300//6
f 303//6 328//6 327//6 302//6
f 305//6 330//6 329//6 304//6
f 313//5 338//5 341//5 316//5
f 307//6 332//6 331//6 306//6
f 317//5 342//5 336//5 311//5
f 309//6 334//6 333//6 308//6
f 344//5 343//5 345//5 346//5
f 342//1 317//1 346//1 345//1
f 315//6 340//6 343//6 344//6
f 317//4 315//4 344//4 346//4
